<svg xmlns="http://www.w3.org/2000/svg" xmlns:xlink="http://www.w3.org/1999/xlink" width="500" zoomAndPan="magnify" viewBox="0 0 375 149.999998" height="200" preserveAspectRatio="xMidYMid meet" version="1.0"><defs><g/></defs><g fill="#ffffff" fill-opacity="1"><g transform="translate(42.425703, 88.906771)"><g><path d="M 35.890625 -64.359375 C 42.191406 -64.359375 47.800781 -63.113281 52.71875 -60.625 C 57.644531 -58.144531 61.484375 -54.625 64.234375 -50.0625 L 49.59375 -41.203125 C 46.445312 -45.617188 42.15625 -47.828125 36.71875 -47.828125 C 32.78125 -47.828125 29.570312 -46.347656 27.09375 -43.390625 C 24.613281 -40.441406 23.375 -36.566406 23.375 -31.765625 C 23.375 -26.878906 24.59375 -22.960938 27.03125 -20.015625 C 29.476562 -17.066406 32.707031 -15.59375 36.71875 -15.59375 C 42.707031 -15.59375 47.035156 -17.992188 49.703125 -22.796875 L 64.59375 -14.046875 C 61.988281 -9.328125 58.1875 -5.6875 53.1875 -3.125 C 48.195312 -0.570312 42.351562 0.703125 35.65625 0.703125 C 25.820312 0.703125 17.890625 -2.265625 11.859375 -8.203125 C 5.835938 -14.148438 2.828125 -21.960938 2.828125 -31.640625 C 2.828125 -41.398438 5.878906 -49.289062 11.984375 -55.3125 C 18.085938 -61.34375 26.054688 -64.359375 35.890625 -64.359375 Z M 35.890625 -64.359375 "/></g></g></g><g fill="#ffffff" fill-opacity="1"><g transform="translate(108.789413, 88.906771)"><g><path d="M 37.671875 -64.359375 C 48.054688 -64.359375 56.4375 -61.382812 62.8125 -55.4375 C 69.1875 -49.488281 72.375 -41.632812 72.375 -31.875 C 72.375 -22.113281 69.1875 -14.242188 62.8125 -8.265625 C 56.4375 -2.285156 48.054688 0.703125 37.671875 0.703125 C 27.203125 0.703125 18.773438 -2.285156 12.390625 -8.265625 C 6.015625 -14.242188 2.828125 -22.113281 2.828125 -31.875 C 2.828125 -41.632812 6.015625 -49.488281 12.390625 -55.4375 C 18.773438 -61.382812 27.203125 -64.359375 37.671875 -64.359375 Z M 37.671875 -48.171875 C 33.421875 -48.171875 29.972656 -46.632812 27.328125 -43.5625 C 24.691406 -40.5 23.375 -36.523438 23.375 -31.640625 C 23.375 -26.679688 24.691406 -22.6875 27.328125 -19.65625 C 29.972656 -16.625 33.421875 -15.109375 37.671875 -15.109375 C 41.835938 -15.109375 45.238281 -16.625 47.875 -19.65625 C 50.519531 -22.6875 51.84375 -26.679688 51.84375 -31.640625 C 51.84375 -36.523438 50.519531 -40.5 47.875 -43.5625 C 45.238281 -46.632812 41.835938 -48.171875 37.671875 -48.171875 Z M 37.671875 -48.171875 "/></g></g></g><g fill="#ffffff" fill-opacity="1"><g transform="translate(184.009495, 88.906771)"><g><path d="M 44.28125 0 L 23.375 0 L -0.59375 -63.640625 L 20.421875 -63.640625 L 34.125 -18.65625 L 47.9375 -63.640625 L 68.25 -63.640625 Z M 44.28125 0 "/></g></g></g><g fill="#ffffff" fill-opacity="1"><g transform="translate(251.435974, 88.906771)"><g><path d="M 36.015625 -64.359375 C 47.035156 -64.359375 55.316406 -60.972656 60.859375 -54.203125 C 66.410156 -47.429688 68.832031 -38.140625 68.125 -26.328125 L 23.375 -26.328125 C 24.40625 -22.546875 26.21875 -19.632812 28.8125 -17.59375 C 31.40625 -15.550781 34.59375 -14.53125 38.375 -14.53125 C 44.195312 -14.53125 49.273438 -16.691406 53.609375 -21.015625 L 64.359375 -10.515625 C 57.503906 -3.035156 48.253906 0.703125 36.609375 0.703125 C 26.296875 0.703125 18.085938 -2.242188 11.984375 -8.140625 C 5.878906 -14.046875 2.828125 -21.878906 2.828125 -31.640625 C 2.828125 -41.484375 5.878906 -49.394531 11.984375 -55.375 C 18.085938 -61.363281 26.097656 -64.359375 36.015625 -64.359375 Z M 23.03125 -37.3125 L 48.53125 -37.3125 C 48.53125 -41.164062 47.40625 -44.273438 45.15625 -46.640625 C 42.914062 -49.003906 39.945312 -50.1875 36.25 -50.1875 C 32.78125 -50.1875 29.863281 -49.023438 27.5 -46.703125 C 25.144531 -44.378906 23.65625 -41.25 23.03125 -37.3125 Z M 23.03125 -37.3125 "/></g></g></g><g fill="#ffffff" fill-opacity="1"><g transform="translate(58.683533, 126.475286)"><g><path d="M 3.546875 -21.8125 L 12.4375 -21.8125 C 14.738281 -21.8125 16.773438 -21.347656 18.546875 -20.421875 C 20.316406 -19.503906 21.6875 -18.21875 22.65625 -16.5625 C 23.632812 -14.914062 24.125 -13.03125 24.125 -10.90625 C 24.125 -8.789062 23.632812 -6.90625 22.65625 -5.25 C 21.6875 -3.601562 20.316406 -2.316406 18.546875 -1.390625 C 16.773438 -0.460938 14.738281 0 12.4375 0 L 3.546875 0 Z M 12.3125 -2 C 14.226562 -2 15.898438 -2.375 17.328125 -3.125 C 18.765625 -3.882812 19.875 -4.9375 20.65625 -6.28125 C 21.445312 -7.625 21.84375 -9.164062 21.84375 -10.90625 C 21.84375 -12.65625 21.445312 -14.195312 20.65625 -15.53125 C 19.875 -16.875 18.765625 -17.925781 17.328125 -18.6875 C 15.898438 -19.445312 14.226562 -19.828125 12.3125 -19.828125 L 5.859375 -19.828125 L 5.859375 -2 Z M 12.3125 -2 "/></g></g></g><g fill="#ffffff" fill-opacity="1"><g transform="translate(84.426879, 126.475286)"><g><path d="M 9.78125 0.15625 C 8.207031 0.15625 6.785156 -0.203125 5.515625 -0.921875 C 4.242188 -1.640625 3.242188 -2.628906 2.515625 -3.890625 C 1.796875 -5.160156 1.4375 -6.597656 1.4375 -8.203125 C 1.4375 -9.796875 1.796875 -11.226562 2.515625 -12.5 C 3.242188 -13.769531 4.242188 -14.753906 5.515625 -15.453125 C 6.785156 -16.160156 8.207031 -16.515625 9.78125 -16.515625 C 11.363281 -16.515625 12.785156 -16.160156 14.046875 -15.453125 C 15.316406 -14.753906 16.3125 -13.769531 17.03125 -12.5 C 17.75 -11.226562 18.109375 -9.796875 18.109375 -8.203125 C 18.109375 -6.597656 17.75 -5.160156 17.03125 -3.890625 C 16.3125 -2.628906 15.316406 -1.640625 14.046875 -0.921875 C 12.785156 -0.203125 11.363281 0.15625 9.78125 0.15625 Z M 9.78125 -1.8125 C 10.945312 -1.8125 11.992188 -2.070312 12.921875 -2.59375 C 13.847656 -3.125 14.566406 -3.878906 15.078125 -4.859375 C 15.597656 -5.835938 15.859375 -6.953125 15.859375 -8.203125 C 15.859375 -9.441406 15.597656 -10.550781 15.078125 -11.53125 C 14.566406 -12.507812 13.847656 -13.265625 12.921875 -13.796875 C 11.992188 -14.328125 10.945312 -14.59375 9.78125 -14.59375 C 8.625 -14.59375 7.582031 -14.328125 6.65625 -13.796875 C 5.726562 -13.265625 5 -12.507812 4.46875 -11.53125 C 3.9375 -10.550781 3.671875 -9.441406 3.671875 -8.203125 C 3.671875 -6.953125 3.9375 -5.835938 4.46875 -4.859375 C 5 -3.878906 5.726562 -3.125 6.65625 -2.59375 C 7.582031 -2.070312 8.625 -1.8125 9.78125 -1.8125 Z M 9.78125 -1.8125 "/></g></g></g><g fill="#ffffff" fill-opacity="1"><g transform="translate(103.968134, 126.475286)"><g><path d="M 9.875 0.15625 C 8.257812 0.15625 6.8125 -0.195312 5.53125 -0.90625 C 4.25 -1.613281 3.242188 -2.601562 2.515625 -3.875 C 1.796875 -5.15625 1.4375 -6.597656 1.4375 -8.203125 C 1.4375 -9.796875 1.796875 -11.226562 2.515625 -12.5 C 3.242188 -13.769531 4.25 -14.753906 5.53125 -15.453125 C 6.8125 -16.160156 8.257812 -16.515625 9.875 -16.515625 C 11.289062 -16.515625 12.554688 -16.238281 13.671875 -15.6875 C 14.785156 -15.144531 15.660156 -14.34375 16.296875 -13.28125 L 14.65625 -12.15625 C 14.113281 -12.96875 13.425781 -13.578125 12.59375 -13.984375 C 11.757812 -14.390625 10.851562 -14.59375 9.875 -14.59375 C 8.695312 -14.59375 7.632812 -14.328125 6.6875 -13.796875 C 5.738281 -13.265625 5 -12.507812 4.46875 -11.53125 C 3.9375 -10.550781 3.671875 -9.441406 3.671875 -8.203125 C 3.671875 -6.929688 3.9375 -5.8125 4.46875 -4.84375 C 5 -3.875 5.738281 -3.125 6.6875 -2.59375 C 7.632812 -2.070312 8.695312 -1.8125 9.875 -1.8125 C 10.851562 -1.8125 11.757812 -2.007812 12.59375 -2.40625 C 13.425781 -2.800781 14.113281 -3.398438 14.65625 -4.203125 L 16.296875 -3.09375 C 15.660156 -2.03125 14.78125 -1.222656 13.65625 -0.671875 C 12.53125 -0.117188 11.269531 0.15625 9.875 0.15625 Z M 9.875 0.15625 "/></g></g></g><g fill="#ffffff" fill-opacity="1"><g transform="translate(121.514747, 126.475286)"><g><path d="M 17.859375 -16.390625 L 17.859375 0 L 15.734375 0 L 15.734375 -3 C 15.160156 -2 14.363281 -1.222656 13.34375 -0.671875 C 12.320312 -0.117188 11.15625 0.15625 9.84375 0.15625 C 7.707031 0.15625 6.019531 -0.4375 4.78125 -1.625 C 3.550781 -2.820312 2.9375 -4.578125 2.9375 -6.890625 L 2.9375 -16.390625 L 5.140625 -16.390625 L 5.140625 -7.109375 C 5.140625 -5.378906 5.566406 -4.066406 6.421875 -3.171875 C 7.273438 -2.285156 8.488281 -1.84375 10.0625 -1.84375 C 11.789062 -1.84375 13.148438 -2.363281 14.140625 -3.40625 C 15.140625 -4.457031 15.640625 -5.921875 15.640625 -7.796875 L 15.640625 -16.390625 Z M 17.859375 -16.390625 "/></g></g></g><g fill="#ffffff" fill-opacity="1"><g transform="translate(142.489655, 126.475286)"><g><path d="M 23.53125 -16.515625 C 25.59375 -16.515625 27.207031 -15.921875 28.375 -14.734375 C 29.550781 -13.554688 30.140625 -11.8125 30.140625 -9.5 L 30.140625 0 L 27.9375 0 L 27.9375 -9.296875 C 27.9375 -10.992188 27.523438 -12.289062 26.703125 -13.1875 C 25.878906 -14.082031 24.71875 -14.53125 23.21875 -14.53125 C 21.519531 -14.53125 20.179688 -14.003906 19.203125 -12.953125 C 18.222656 -11.898438 17.734375 -10.453125 17.734375 -8.609375 L 17.734375 0 L 15.53125 0 L 15.53125 -9.296875 C 15.53125 -10.992188 15.117188 -12.289062 14.296875 -13.1875 C 13.472656 -14.082031 12.300781 -14.53125 10.78125 -14.53125 C 9.101562 -14.53125 7.769531 -14.003906 6.78125 -12.953125 C 5.789062 -11.898438 5.296875 -10.453125 5.296875 -8.609375 L 5.296875 0 L 3.09375 0 L 3.09375 -16.390625 L 5.203125 -16.390625 L 5.203125 -13.40625 C 5.785156 -14.40625 6.597656 -15.171875 7.640625 -15.703125 C 8.679688 -16.242188 9.875 -16.515625 11.21875 -16.515625 C 12.59375 -16.515625 13.78125 -16.222656 14.78125 -15.640625 C 15.789062 -15.066406 16.546875 -14.207031 17.046875 -13.0625 C 17.648438 -14.144531 18.519531 -14.988281 19.65625 -15.59375 C 20.789062 -16.207031 22.082031 -16.515625 23.53125 -16.515625 Z M 23.53125 -16.515625 "/></g></g></g><g fill="#ffffff" fill-opacity="1"><g transform="translate(175.557069, 126.475286)"><g><path d="M 17.359375 -7.515625 L 3.640625 -7.515625 C 3.765625 -5.804688 4.421875 -4.425781 5.609375 -3.375 C 6.796875 -2.332031 8.289062 -1.8125 10.09375 -1.8125 C 11.113281 -1.8125 12.050781 -1.992188 12.90625 -2.359375 C 13.757812 -2.722656 14.5 -3.253906 15.125 -3.953125 L 16.359375 -2.53125 C 15.640625 -1.65625 14.734375 -0.988281 13.640625 -0.53125 C 12.546875 -0.0703125 11.34375 0.15625 10.03125 0.15625 C 8.351562 0.15625 6.863281 -0.203125 5.5625 -0.921875 C 4.257812 -1.640625 3.242188 -2.628906 2.515625 -3.890625 C 1.796875 -5.160156 1.4375 -6.597656 1.4375 -8.203125 C 1.4375 -9.796875 1.78125 -11.226562 2.46875 -12.5 C 3.164062 -13.769531 4.125 -14.753906 5.34375 -15.453125 C 6.5625 -16.160156 7.925781 -16.515625 9.4375 -16.515625 C 10.957031 -16.515625 12.320312 -16.160156 13.53125 -15.453125 C 14.738281 -14.753906 15.679688 -13.773438 16.359375 -12.515625 C 17.046875 -11.253906 17.390625 -9.816406 17.390625 -8.203125 Z M 9.4375 -14.625 C 7.863281 -14.625 6.539062 -14.117188 5.46875 -13.109375 C 4.394531 -12.097656 3.785156 -10.785156 3.640625 -9.171875 L 15.28125 -9.171875 C 15.132812 -10.785156 14.523438 -12.097656 13.453125 -13.109375 C 12.378906 -14.117188 11.039062 -14.625 9.4375 -14.625 Z M 9.4375 -14.625 "/></g></g></g><g fill="#ffffff" fill-opacity="1"><g transform="translate(194.381497, 126.475286)"><g><path d="M 11.4375 -16.515625 C 13.5 -16.515625 15.132812 -15.914062 16.34375 -14.71875 C 17.5625 -13.53125 18.171875 -11.789062 18.171875 -9.5 L 18.171875 0 L 15.953125 0 L 15.953125 -9.296875 C 15.953125 -10.992188 15.523438 -12.289062 14.671875 -13.1875 C 13.828125 -14.082031 12.613281 -14.53125 11.03125 -14.53125 C 9.269531 -14.53125 7.875 -14.003906 6.84375 -12.953125 C 5.8125 -11.898438 5.296875 -10.453125 5.296875 -8.609375 L 5.296875 0 L 3.09375 0 L 3.09375 -16.390625 L 5.203125 -16.390625 L 5.203125 -13.375 C 5.804688 -14.375 6.644531 -15.144531 7.71875 -15.6875 C 8.789062 -16.238281 10.03125 -16.515625 11.4375 -16.515625 Z M 11.4375 -16.515625 "/></g></g></g><g fill="#ffffff" fill-opacity="1"><g transform="translate(215.481062, 126.475286)"><g><path d="M 11.71875 -1 C 11.300781 -0.625 10.785156 -0.335938 10.171875 -0.140625 C 9.566406 0.0546875 8.929688 0.15625 8.265625 0.15625 C 6.722656 0.15625 5.535156 -0.257812 4.703125 -1.09375 C 3.867188 -1.925781 3.453125 -3.097656 3.453125 -4.609375 L 3.453125 -14.53125 L 0.53125 -14.53125 L 0.53125 -16.390625 L 3.453125 -16.390625 L 3.453125 -19.984375 L 5.671875 -19.984375 L 5.671875 -16.390625 L 10.65625 -16.390625 L 10.65625 -14.53125 L 5.671875 -14.53125 L 5.671875 -4.734375 C 5.671875 -3.753906 5.914062 -3.007812 6.40625 -2.5 C 6.894531 -2 7.597656 -1.75 8.515625 -1.75 C 8.972656 -1.75 9.410156 -1.820312 9.828125 -1.96875 C 10.253906 -2.113281 10.625 -2.320312 10.9375 -2.59375 Z M 11.71875 -1 "/></g></g></g><g fill="#ffffff" fill-opacity="1"><g transform="translate(228.134569, 126.475286)"><g><path d="M 8.828125 -16.515625 C 10.960938 -16.515625 12.601562 -15.976562 13.75 -14.90625 C 14.894531 -13.84375 15.46875 -12.257812 15.46875 -10.15625 L 15.46875 0 L 13.34375 0 L 13.34375 -2.5625 C 12.84375 -1.707031 12.109375 -1.039062 11.140625 -0.5625 C 10.171875 -0.0820312 9.023438 0.15625 7.703125 0.15625 C 5.867188 0.15625 4.410156 -0.28125 3.328125 -1.15625 C 2.253906 -2.03125 1.71875 -3.179688 1.71875 -4.609375 C 1.71875 -6.003906 2.21875 -7.128906 3.21875 -7.984375 C 4.226562 -8.835938 5.835938 -9.265625 8.046875 -9.265625 L 13.25 -9.265625 L 13.25 -10.25 C 13.25 -11.664062 12.851562 -12.742188 12.0625 -13.484375 C 11.269531 -14.222656 10.117188 -14.59375 8.609375 -14.59375 C 7.566406 -14.59375 6.566406 -14.421875 5.609375 -14.078125 C 4.648438 -13.734375 3.828125 -13.257812 3.140625 -12.65625 L 2.15625 -14.3125 C 2.976562 -15.019531 3.972656 -15.5625 5.140625 -15.9375 C 6.304688 -16.320312 7.535156 -16.515625 8.828125 -16.515625 Z M 8.046875 -1.59375 C 9.285156 -1.59375 10.351562 -1.875 11.25 -2.4375 C 12.144531 -3.007812 12.8125 -3.835938 13.25 -4.921875 L 13.25 -7.609375 L 8.109375 -7.609375 C 5.296875 -7.609375 3.890625 -6.628906 3.890625 -4.671875 C 3.890625 -3.710938 4.253906 -2.957031 4.984375 -2.40625 C 5.710938 -1.863281 6.734375 -1.59375 8.046875 -1.59375 Z M 8.046875 -1.59375 "/></g></g></g><g fill="#ffffff" fill-opacity="1"><g transform="translate(246.522677, 126.475286)"><g><path d="M 11.71875 -1 C 11.300781 -0.625 10.785156 -0.335938 10.171875 -0.140625 C 9.566406 0.0546875 8.929688 0.15625 8.265625 0.15625 C 6.722656 0.15625 5.535156 -0.257812 4.703125 -1.09375 C 3.867188 -1.925781 3.453125 -3.097656 3.453125 -4.609375 L 3.453125 -14.53125 L 0.53125 -14.53125 L 0.53125 -16.390625 L 3.453125 -16.390625 L 3.453125 -19.984375 L 5.671875 -19.984375 L 5.671875 -16.390625 L 10.65625 -16.390625 L 10.65625 -14.53125 L 5.671875 -14.53125 L 5.671875 -4.734375 C 5.671875 -3.753906 5.914062 -3.007812 6.40625 -2.5 C 6.894531 -2 7.597656 -1.75 8.515625 -1.75 C 8.972656 -1.75 9.410156 -1.820312 9.828125 -1.96875 C 10.253906 -2.113281 10.625 -2.320312 10.9375 -2.59375 Z M 11.71875 -1 "/></g></g></g><g fill="#ffffff" fill-opacity="1"><g transform="translate(259.176172, 126.475286)"><g><path d="M 3.09375 -16.390625 L 5.296875 -16.390625 L 5.296875 0 L 3.09375 0 Z M 4.21875 -19.984375 C 3.757812 -19.984375 3.375 -20.140625 3.0625 -20.453125 C 2.75 -20.765625 2.59375 -21.140625 2.59375 -21.578125 C 2.59375 -21.984375 2.75 -22.34375 3.0625 -22.65625 C 3.375 -22.96875 3.757812 -23.125 4.21875 -23.125 C 4.664062 -23.125 5.046875 -22.972656 5.359375 -22.671875 C 5.671875 -22.367188 5.828125 -22.015625 5.828125 -21.609375 C 5.828125 -21.148438 5.671875 -20.765625 5.359375 -20.453125 C 5.046875 -20.140625 4.664062 -19.984375 4.21875 -19.984375 Z M 4.21875 -19.984375 "/></g></g></g><g fill="#ffffff" fill-opacity="1"><g transform="translate(267.559901, 126.475286)"><g><path d="M 9.78125 0.15625 C 8.207031 0.15625 6.785156 -0.203125 5.515625 -0.921875 C 4.242188 -1.640625 3.242188 -2.628906 2.515625 -3.890625 C 1.796875 -5.160156 1.4375 -6.597656 1.4375 -8.203125 C 1.4375 -9.796875 1.796875 -11.226562 2.515625 -12.5 C 3.242188 -13.769531 4.242188 -14.753906 5.515625 -15.453125 C 6.785156 -16.160156 8.207031 -16.515625 9.78125 -16.515625 C 11.363281 -16.515625 12.785156 -16.160156 14.046875 -15.453125 C 15.316406 -14.753906 16.3125 -13.769531 17.03125 -12.5 C 17.75 -11.226562 18.109375 -9.796875 18.109375 -8.203125 C 18.109375 -6.597656 17.75 -5.160156 17.03125 -3.890625 C 16.3125 -2.628906 15.316406 -1.640625 14.046875 -0.921875 C 12.785156 -0.203125 11.363281 0.15625 9.78125 0.15625 Z M 9.78125 -1.8125 C 10.945312 -1.8125 11.992188 -2.070312 12.921875 -2.59375 C 13.847656 -3.125 14.566406 -3.878906 15.078125 -4.859375 C 15.597656 -5.835938 15.859375 -6.953125 15.859375 -8.203125 C 15.859375 -9.441406 15.597656 -10.550781 15.078125 -11.53125 C 14.566406 -12.507812 13.847656 -13.265625 12.921875 -13.796875 C 11.992188 -14.328125 10.945312 -14.59375 9.78125 -14.59375 C 8.625 -14.59375 7.582031 -14.328125 6.65625 -13.796875 C 5.726562 -13.265625 5 -12.507812 4.46875 -11.53125 C 3.9375 -10.550781 3.671875 -9.441406 3.671875 -8.203125 C 3.671875 -6.953125 3.9375 -5.835938 4.46875 -4.859375 C 5 -3.878906 5.726562 -3.125 6.65625 -2.59375 C 7.582031 -2.070312 8.625 -1.8125 9.78125 -1.8125 Z M 9.78125 -1.8125 "/></g></g></g><g fill="#ffffff" fill-opacity="1"><g transform="translate(287.101156, 126.475286)"><g><path d="M 11.4375 -16.515625 C 13.5 -16.515625 15.132812 -15.914062 16.34375 -14.71875 C 17.5625 -13.53125 18.171875 -11.789062 18.171875 -9.5 L 18.171875 0 L 15.953125 0 L 15.953125 -9.296875 C 15.953125 -10.992188 15.523438 -12.289062 14.671875 -13.1875 C 13.828125 -14.082031 12.613281 -14.53125 11.03125 -14.53125 C 9.269531 -14.53125 7.875 -14.003906 6.84375 -12.953125 C 5.8125 -11.898438 5.296875 -10.453125 5.296875 -8.609375 L 5.296875 0 L 3.09375 0 L 3.09375 -16.390625 L 5.203125 -16.390625 L 5.203125 -13.375 C 5.804688 -14.375 6.644531 -15.144531 7.71875 -15.6875 C 8.789062 -16.238281 10.03125 -16.515625 11.4375 -16.515625 Z M 11.4375 -16.515625 "/></g></g></g></svg>