<svg width="256" height="256" viewBox="0 0 256 256" fill="none" xmlns="http://www.w3.org/2000/svg">
<g clip-path="url(#clip0_7_276)">
<rect width="256" height="256" rx="56" fill="url(#paint0_linear_7_276)"/>
<g clip-path="url(#clip1_7_276)">
<path d="M256 0H0V256H256V0Z" fill="url(#paint1_linear_7_276)"/>
</g>
<g clip-path="url(#clip2_7_276)">
<path d="M0 0H256V246C256 251.523 251.523 256 246 256H10C4.47715 256 0 251.523 0 246V0Z" fill="url(#paint2_linear_7_276)"/>
<circle cx="247.577" cy="9.24567" r="17.2583" fill="white" fill-opacity="0.1"/>
<path d="M148.164 195.046C151.248 196.53 155.409 197.721 159.578 196.228C164.414 194.497 167.555 189.981 168.847 182.855L177.152 137.507L200.412 90.8338C200.673 90.3223 202.86 85.7936 202.723 80.8691C202.622 77.2327 201.267 74.1223 198.84 71.888C196.538 69.8036 193.413 68.5884 189.518 68.3067C189.528 67.8767 189.547 67.4553 189.535 67.0347C189.341 60.0686 186.332 56.5789 183.84 54.877C179.984 52.2089 174.872 52.0224 168.633 54.2482L117.382 72.613L72.6004 75.4824C64.8441 75.9746 56.5758 80.5325 56.821 89.3387C56.8674 91.0035 57.2439 92.7469 57.9106 94.5479C54.4386 96.7404 50.2357 100.633 50.4039 106.67C50.522 110.911 52.8985 115.076 57.5198 118.985L94.7451 150.618L123.228 193.184C123.853 194.109 129.532 202.247 137.685 201.717C141.767 201.485 145.266 199.187 148.159 195.037L148.164 195.046ZM74.6846 100.083L119.718 83.9391L176.037 80.3758L166.22 133.878L144.355 177.776L103.359 142.925L74.6846 100.083ZM157.605 180.796C156.981 184.286 155.966 185.367 155.745 185.452C155.347 185.581 154.496 185.355 153.537 184.957L158.77 174.419L157.605 180.796ZM191.298 81.2004C191.346 82.9222 190.485 85.121 190.2 85.7252L184.589 97.0008L187.762 79.6722C189.805 79.7161 190.87 80.1118 191.126 80.3502C191.198 80.4227 191.286 80.7535 191.298 81.2004ZM172.462 65.0416C176.237 63.6869 177.382 64.3039 177.405 64.3252C177.557 64.4525 178.046 65.3596 178.101 67.3575C178.116 67.8832 178.107 68.3526 178.07 68.7526L158.652 69.9949L172.462 65.0416ZM73.3426 86.9055L78.4103 86.589L68.4697 90.1323C68.3559 89.7721 68.2796 89.401 68.2421 89.025C68.2155 88.0699 71.3793 87.061 73.3426 86.9055ZM64.9283 110.242C61.8923 107.678 61.83 106.382 61.8292 106.356C61.819 105.988 62.6443 105.163 63.7856 104.381L71.4322 115.809L64.9283 110.242ZM132.719 186.838L126.638 177.765L138.981 188.26C137.932 189.863 137.144 190.306 136.948 190.312C136.101 190.362 133.908 188.555 132.719 186.838Z" fill="url(#paint3_linear_7_276)"/>
</g>
</g>
<defs>
<linearGradient id="paint0_linear_7_276" x1="1.53938e-06" y1="38.5066" x2="256" y2="217.493" gradientUnits="userSpaceOnUse">
<stop offset="0.710645" stop-color="white"/>
</linearGradient>
<linearGradient id="paint1_linear_7_276" x1="128" y1="0" x2="128" y2="256" gradientUnits="userSpaceOnUse">
<stop stop-color="#CACACA"/>
<stop offset="1" stop-color="#646464"/>
</linearGradient>
<linearGradient id="paint2_linear_7_276" x1="4.4" y1="11.6752" x2="302.878" y2="135.874" gradientUnits="userSpaceOnUse">
<stop offset="0.346175" stop-color="#5D6DBF"/>
<stop offset="1" stop-color="#303F88"/>
</linearGradient>
<linearGradient id="paint3_linear_7_276" x1="201.965" y1="53.64" x2="93.0201" y2="155.021" gradientUnits="userSpaceOnUse">
<stop offset="1" stop-color="white"/>
</linearGradient>
<clipPath id="clip0_7_276">
<rect width="256" height="256" rx="56" fill="white"/>
</clipPath>
<clipPath id="clip1_7_276">
<rect width="256" height="256" fill="white"/>
</clipPath>
<clipPath id="clip2_7_276">
<path d="M0 0H256V246C256 251.523 251.523 256 246 256H10C4.47715 256 0 251.523 0 246V0Z" fill="white"/>
</clipPath>
</defs>
</svg>
